<?xml version="1.0"?>
<svg xmlns="http://www.w3.org/2000/svg" xmlns:xlink="http://www.w3.org/1999/xlink" xmlnssvgjs="http://svgjs.com/svgjs" version="1.1" width="512" height="512" x="0" y="0" viewBox="0 0 512 512" style="enable-background:new 0 0 512 512" xml:space="preserve" class=""><g><path xmlns="http://www.w3.org/2000/svg" d="m450 252h-11.660156c-20.167969-49.835938-64.46875-86.929688-118.339844-97.160156v-64.839844c0-27.570312-22.429688-50-50-50h-190v-10c0-16.542969-13.457031-30-30-30h-40c-5.523438 0-10 4.476562-10 10v120c0 5.523438 4.476562 10 10 10h40c16.542969 0 30-13.457031 30-30v-10h50c5.523438 0 10-4.476562 10-10s-4.476562-10-10-10h-50v-20h190c16.542969 0 30 13.457031 30 30v62.324219c-6.648438-.410157-13.359375-.410157-20 0v-62.324219c0-5.523438-4.476562-10-10-10h-60c-5.523438 0-10 4.476562-10 10s4.476562 10 10 10h50v54.84375c-53.984375 10.25-98.214844 47.425781-118.339844 97.15625h-11.660156c-16.574219 0-30 13.425781-30 30 0 16.542969 13.457031 30 30 30 0 18.605469 12.765625 34.28125 30 38.734375v31.265625c0 5.523438 4.476562 10 10 10s10-4.476562 10-10v-30h40v30c0 5.523438 4.476562 10 10 10s10-4.476562 10-10v-30h40v30c0 5.523438 4.476562 10 10 10s10-4.476562 10-10v-30h40v30c0 5.523438 4.476562 10 10 10s10-4.476562 10-10v-30h40v30c0 5.523438 4.476562 10 10 10s10-4.476562 10-10v-31.265625c17.234375-4.453125 30-20.128906 30-38.734375 16.574219 0 30-13.425781 30-30 0-16.542969-13.457031-30-30-30zm-390-142c0 5.515625-4.484375 10-10 10h-30v-100h30c5.515625 0 10 4.484375 10 10zm211.332031 63.242188c12.242188-1.648438 25.082031-1.648438 37.347657 0 47.507812 6.328124 87.695312 36.019531 107.863281 78.757812h-253.085938c20.167969-42.738281 60.355469-72.429688 107.875-78.757812zm138.667969 158.757812h-240c-11.027344 0-20-8.980469-20-20.011719h280c0 11.03125-8.972656 20.011719-20 20.011719zm40-40h-320c-5.515625 0-10-4.484375-10-10 0-5.519531 4.480469-10 10-10h320c5.515625 0 10 4.484375 10 10 0 5.519531-4.480469 10-10 10zm0 0" fill="#ff5534" data-original="#000000" style="" class=""/><path xmlns="http://www.w3.org/2000/svg" d="m170 412c-5.523438 0-10 4.476562-10 10v20c0 5.523438 4.476562 10 10 10s10-4.476562 10-10v-20c0-5.523438-4.476562-10-10-10zm0 0" fill="#ff5534" data-original="#000000" style="" class=""/><path xmlns="http://www.w3.org/2000/svg" d="m230 412c-5.523438 0-10 4.476562-10 10v20c0 5.523438 4.476562 10 10 10s10-4.476562 10-10v-20c0-5.523438-4.476562-10-10-10zm0 0" fill="#ff5534" data-original="#000000" style="" class=""/><path xmlns="http://www.w3.org/2000/svg" d="m290 412c-5.523438 0-10 4.476562-10 10v20c0 5.523438 4.476562 10 10 10s10-4.476562 10-10v-20c0-5.523438-4.476562-10-10-10zm0 0" fill="#ff5534" data-original="#000000" style="" class=""/><path xmlns="http://www.w3.org/2000/svg" d="m350 412c-5.523438 0-10 4.476562-10 10v20c0 5.523438 4.476562 10 10 10s10-4.476562 10-10v-20c0-5.523438-4.476562-10-10-10zm0 0" fill="#ff5534" data-original="#000000" style="" class=""/><path xmlns="http://www.w3.org/2000/svg" d="m410 412c-5.523438 0-10 4.476562-10 10v20c0 5.523438 4.476562 10 10 10s10-4.476562 10-10v-20c0-5.523438-4.476562-10-10-10zm0 0" fill="#ff5534" data-original="#000000" style="" class=""/><path xmlns="http://www.w3.org/2000/svg" d="m170 472c-5.523438 0-10 4.476562-10 10v20c0 5.523438 4.476562 10 10 10s10-4.476562 10-10v-20c0-5.523438-4.476562-10-10-10zm0 0" fill="#ff5534" data-original="#000000" style="" class=""/><path xmlns="http://www.w3.org/2000/svg" d="m230 472c-5.523438 0-10 4.476562-10 10v20c0 5.523438 4.476562 10 10 10s10-4.476562 10-10v-20c0-5.523438-4.476562-10-10-10zm0 0" fill="#ff5534" data-original="#000000" style="" class=""/><path xmlns="http://www.w3.org/2000/svg" d="m290 472c-5.523438 0-10 4.476562-10 10v20c0 5.523438 4.476562 10 10 10s10-4.476562 10-10v-20c0-5.523438-4.476562-10-10-10zm0 0" fill="#ff5534" data-original="#000000" style="" class=""/><path xmlns="http://www.w3.org/2000/svg" d="m350 472c-5.523438 0-10 4.476562-10 10v20c0 5.523438 4.476562 10 10 10s10-4.476562 10-10v-20c0-5.523438-4.476562-10-10-10zm0 0" fill="#ff5534" data-original="#000000" style="" class=""/><path xmlns="http://www.w3.org/2000/svg" d="m410 472c-5.523438 0-10 4.476562-10 10v20c0 5.523438 4.476562 10 10 10s10-4.476562 10-10v-20c0-5.523438-4.476562-10-10-10zm0 0" fill="#ff5534" data-original="#000000" style="" class=""/><path xmlns="http://www.w3.org/2000/svg" d="m180 90c0 5.523438-4.476562 10-10 10s-10-4.476562-10-10 4.476562-10 10-10 10 4.476562 10 10zm0 0" fill="#ff5534" data-original="#000000" style="" class=""/></g></svg>
