<?xml version="1.0"?>
<svg xmlns="http://www.w3.org/2000/svg" xmlns:xlink="http://www.w3.org/1999/xlink" xmlnssvgjs="http://svgjs.com/svgjs" version="1.1" width="512" height="512" x="0" y="0" viewBox="0 0 512.001 512.001" style="enable-background:new 0 0 512 512" xml:space="preserve"><g>
<g xmlns="http://www.w3.org/2000/svg">
	<g>
		<path d="M492,222h-12v-43.764c0-16.893-13.744-30.636-30.637-30.636h-12.727c-3.842,0-7.518,0.717-10.909,2.014    C423.751,134.617,410.892,123,395.363,123h-40.727C337.744,123,324,136.745,324,153.637v68.553H188v-68.553    C188,136.745,174.256,123,157.363,123h-40.727c-15.529,0-28.387,11.617-30.364,26.615c-3.392-1.297-7.067-2.014-10.909-2.014    H62.637C45.744,147.6,32,161.344,32,178.236V222H20c-11.028,0-20,8.972-20,20v28c0,11.028,8.972,20,20,20h12v43.764    c0,16.893,13.744,30.636,30.637,30.636h12.727c3.842,0,7.518-0.717,10.909-2.014C88.249,377.383,101.108,389,116.637,389h40.727    C174.256,389,188,375.256,188,358.363V290h136v68.363C324,375.256,337.744,389,354.637,389h40.727    c15.529,0,28.387-11.617,30.364-26.615c3.392,1.297,7.067,2.014,10.909,2.014h12.727c16.893,0,30.637-13.743,30.637-30.636V290h12    c11.028,0,20-8.972,20-20v-28C512,230.972,503.028,222,492,222z M32,270H20v-28h12V270z M86.001,333.763    C86,339.628,81.229,344.4,75.363,344.4H62.637C56.771,344.4,52,339.628,52,333.764V280v-48v-53.764    c0-5.865,4.771-10.636,10.637-10.636h12.727c5.865,0,10.637,4.771,10.637,10.636V333.763z M168.001,358.363L168.001,358.363    C168,364.228,163.229,369,157.363,369H138v-81.54c0-5.523-4.477-10-10-10s-10,4.477-10,10V369h-1.363    c-5.865,0-10.637-4.771-10.637-10.637v-24.6V178.236v-24.6c0-5.865,4.771-10.637,10.637-10.637h40.727    c5.865,0,10.637,4.771,10.637,10.637V358.363z M324,270H188v-27.811h136V270z M406,178.237v155.527v24.599    c0,5.865-4.771,10.637-10.637,10.637h-40.727c-5.865,0-10.637-4.771-10.637-10.637V153.637c0-5.865,4.771-10.637,10.637-10.637    H374v81.54c0,5.523,4.477,10,10,10s10-4.477,10-10V143h1.363c5.865,0,10.637,4.771,10.637,10.637V178.237z M460,232v48v53.764    c0,5.865-4.771,10.636-10.637,10.636h-12.727c-5.865,0-10.637-4.771-10.637-10.636V178.236c0-5.865,4.771-10.636,10.637-10.636    h12.727c5.865,0,10.637,4.771,10.637,10.636V232z M492,270h-12v-28h12V270z" fill="#ff5534" data-original="#000000" style=""/>
	</g>
</g>
<g xmlns="http://www.w3.org/2000/svg">
	<g>
		<path d="M391.07,255.133c-1.86-1.86-4.44-2.93-7.07-2.93s-5.21,1.07-7.07,2.93c-1.86,1.86-2.93,4.44-2.93,7.07    c0,2.64,1.07,5.21,2.93,7.08c1.86,1.86,4.44,2.92,7.07,2.92s5.21-1.06,7.07-2.92c1.86-1.87,2.93-4.45,2.93-7.08    C394,259.573,392.93,257.003,391.07,255.133z" fill="#ff5534" data-original="#000000" style=""/>
	</g>
</g>
<g xmlns="http://www.w3.org/2000/svg">
	<g>
		<path d="M135.07,242.723c-1.86-1.86-4.44-2.93-7.07-2.93s-5.21,1.07-7.07,2.93c-1.86,1.86-2.93,4.44-2.93,7.07    s1.07,5.21,2.93,7.07s4.44,2.93,7.07,2.93s5.21-1.07,7.07-2.93s2.93-4.44,2.93-7.07S136.93,244.583,135.07,242.723z" fill="#ff5534" data-original="#000000" style=""/>
	</g>
</g>
<g xmlns="http://www.w3.org/2000/svg">
</g>
<g xmlns="http://www.w3.org/2000/svg">
</g>
<g xmlns="http://www.w3.org/2000/svg">
</g>
<g xmlns="http://www.w3.org/2000/svg">
</g>
<g xmlns="http://www.w3.org/2000/svg">
</g>
<g xmlns="http://www.w3.org/2000/svg">
</g>
<g xmlns="http://www.w3.org/2000/svg">
</g>
<g xmlns="http://www.w3.org/2000/svg">
</g>
<g xmlns="http://www.w3.org/2000/svg">
</g>
<g xmlns="http://www.w3.org/2000/svg">
</g>
<g xmlns="http://www.w3.org/2000/svg">
</g>
<g xmlns="http://www.w3.org/2000/svg">
</g>
<g xmlns="http://www.w3.org/2000/svg">
</g>
<g xmlns="http://www.w3.org/2000/svg">
</g>
<g xmlns="http://www.w3.org/2000/svg">
</g>
</g></svg>
